<svg xmlns="http://www.w3.org/2000/svg" xmlns:xlink="http://www.w3.org/1999/xlink" width="2400" zoomAndPan="magnify" viewBox="0 0 1800 1799.999925" height="2400" preserveAspectRatio="xMidYMid meet" version="1.0"><defs><clipPath id="31a998c212"><path d="M 171 204.476562 L 1794.9375 204.476562 L 1794.9375 901 L 171 901 Z M 171 204.476562 " clip-rule="nonzero"/></clipPath><clipPath id="47b0c1ba34"><path d="M 5.4375 900 L 1629 900 L 1629 1595.726562 L 5.4375 1595.726562 Z M 5.4375 900 " clip-rule="nonzero"/></clipPath></defs><g clip-path="url(#31a998c212)"><path fill="#00a82d" d="M 171.621094 900.035156 L 440.3125 900.035156 L 651.886719 632.46875 L 383.195312 632.46875 Z M 1526.214844 204.429688 L 963.917969 900.035156 L 1232.613281 900.035156 L 1794.917969 204.429688 Z M 987.828125 379.214844 L 567.773438 900.035156 L 836.460938 900.035156 L 1256.515625 379.214844 L 987.828125 379.214844 " fill-opacity="1" fill-rule="nonzero"/></g><g clip-path="url(#47b0c1ba34)"><path fill="#14cc45" d="M 1628.757812 900.039062 L 1360.058594 900.039062 L 1148.488281 1167.613281 L 1417.1875 1167.613281 Z M 274.148438 1595.640625 L 836.457031 900.039062 L 567.765625 900.039062 L 5.460938 1595.640625 Z M 812.550781 1420.871094 L 1232.609375 900.039062 L 963.914062 900.039062 L 543.863281 1420.871094 L 812.550781 1420.871094 " fill-opacity="1" fill-rule="nonzero"/></g></svg>