<svg xmlns="http://www.w3.org/2000/svg" xmlns:xlink="http://www.w3.org/1999/xlink" width="400" zoomAndPan="magnify" viewBox="0 0 300 108.749999" height="145" preserveAspectRatio="xMidYMid meet" version="1.0"><defs><g/><clipPath id="id1"><path d="M 13 0 L 139.523438 0 L 139.523438 55 L 13 55 Z M 13 0 " clip-rule="nonzero"/></clipPath><clipPath id="id2"><path d="M 0.34375 54 L 127 54 L 127 108.5 L 0.34375 108.5 Z M 0.34375 54 " clip-rule="nonzero"/></clipPath></defs><g clip-path="url(#id1)"><path fill="#00a82d" d="M 13.265625 54.246094 L 34.164062 54.246094 L 50.621094 33.378906 L 29.722656 33.378906 Z M 118.625 -0.00390625 L 74.890625 54.246094 L 95.789062 54.246094 L 139.527344 -0.00390625 Z M 76.75 13.628906 L 44.078125 54.246094 L 64.976562 54.246094 L 97.648438 13.628906 L 76.75 13.628906 " fill-opacity="1" fill-rule="nonzero"/></g><g clip-path="url(#id2)"><path fill="#14cc45" d="M 126.601562 54.246094 L 105.703125 54.246094 L 89.246094 75.113281 L 110.144531 75.113281 Z M 21.242188 108.492188 L 64.976562 54.246094 L 44.078125 54.246094 L 0.34375 108.492188 Z M 63.117188 94.863281 L 95.789062 54.246094 L 74.890625 54.246094 L 42.21875 94.863281 L 63.117188 94.863281 " fill-opacity="1" fill-rule="nonzero"/></g><g fill="#000000" fill-opacity="1"><g transform="translate(134.921615, 61.735681)"><g><path d="M 7.59375 0.234375 C 6.175781 0.234375 4.960938 0.0234375 3.953125 -0.390625 C 2.953125 -0.816406 2.191406 -1.375 1.671875 -2.0625 C 1.148438 -2.757812 0.875 -3.519531 0.84375 -4.34375 C 0.84375 -4.46875 0.890625 -4.582031 0.984375 -4.6875 C 1.078125 -4.789062 1.195312 -4.84375 1.34375 -4.84375 L 3.484375 -4.84375 C 3.660156 -4.84375 3.800781 -4.800781 3.90625 -4.71875 C 4.019531 -4.632812 4.125 -4.523438 4.21875 -4.390625 C 4.375 -3.859375 4.734375 -3.410156 5.296875 -3.046875 C 5.859375 -2.679688 6.625 -2.5 7.59375 -2.5 C 8.695312 -2.5 9.523438 -2.679688 10.078125 -3.046875 C 10.640625 -3.421875 10.921875 -3.929688 10.921875 -4.578125 C 10.921875 -5.003906 10.78125 -5.359375 10.5 -5.640625 C 10.21875 -5.921875 9.789062 -6.164062 9.21875 -6.375 C 8.644531 -6.59375 7.789062 -6.851562 6.65625 -7.15625 C 4.800781 -7.59375 3.441406 -8.171875 2.578125 -8.890625 C 1.710938 -9.617188 1.28125 -10.660156 1.28125 -12.015625 C 1.28125 -12.921875 1.53125 -13.734375 2.03125 -14.453125 C 2.53125 -15.171875 3.25 -15.734375 4.1875 -16.140625 C 5.125 -16.546875 6.210938 -16.75 7.453125 -16.75 C 8.753906 -16.75 9.878906 -16.519531 10.828125 -16.0625 C 11.785156 -15.613281 12.507812 -15.046875 13 -14.359375 C 13.5 -13.671875 13.765625 -12.988281 13.796875 -12.3125 C 13.796875 -12.1875 13.75 -12.070312 13.65625 -11.96875 C 13.5625 -11.875 13.445312 -11.828125 13.3125 -11.828125 L 11.0625 -11.828125 C 10.71875 -11.828125 10.484375 -11.96875 10.359375 -12.25 C 10.273438 -12.75 9.96875 -13.164062 9.4375 -13.5 C 8.90625 -13.84375 8.242188 -14.015625 7.453125 -14.015625 C 6.585938 -14.015625 5.90625 -13.847656 5.40625 -13.515625 C 4.914062 -13.191406 4.671875 -12.710938 4.671875 -12.078125 C 4.671875 -11.648438 4.796875 -11.296875 5.046875 -11.015625 C 5.296875 -10.734375 5.6875 -10.484375 6.21875 -10.265625 C 6.757812 -10.054688 7.539062 -9.820312 8.5625 -9.5625 C 9.96875 -9.238281 11.082031 -8.878906 11.90625 -8.484375 C 12.726562 -8.097656 13.335938 -7.601562 13.734375 -7 C 14.128906 -6.40625 14.328125 -5.644531 14.328125 -4.71875 C 14.328125 -3.695312 14.046875 -2.8125 13.484375 -2.0625 C 12.921875 -1.3125 12.132812 -0.738281 11.125 -0.34375 C 10.113281 0.0390625 8.9375 0.234375 7.59375 0.234375 Z M 7.59375 0.234375 "/></g></g></g><g fill="#000000" fill-opacity="1"><g transform="translate(152.845789, 61.735681)"><g><path d="M 2.40625 0 C 2.25 0 2.113281 -0.0507812 2 -0.15625 C 1.894531 -0.269531 1.84375 -0.40625 1.84375 -0.5625 L 1.84375 -15.953125 C 1.84375 -16.117188 1.894531 -16.253906 2 -16.359375 C 2.113281 -16.460938 2.25 -16.515625 2.40625 -16.515625 L 4.671875 -16.515625 C 4.847656 -16.515625 4.984375 -16.460938 5.078125 -16.359375 C 5.179688 -16.253906 5.234375 -16.117188 5.234375 -15.953125 L 5.234375 -0.5625 C 5.234375 -0.40625 5.179688 -0.269531 5.078125 -0.15625 C 4.984375 -0.0507812 4.847656 0 4.671875 0 Z M 2.40625 0 "/></g></g></g><g fill="#000000" fill-opacity="1"><g transform="translate(162.681175, 61.735681)"><g><path d="M 2.40625 0 C 2.25 0 2.113281 -0.0507812 2 -0.15625 C 1.894531 -0.269531 1.84375 -0.40625 1.84375 -0.5625 L 1.84375 -15.921875 C 1.84375 -16.097656 1.890625 -16.238281 1.984375 -16.34375 C 2.085938 -16.457031 2.226562 -16.515625 2.40625 -16.515625 L 4.3125 -16.515625 C 4.613281 -16.515625 4.851562 -16.363281 5.03125 -16.0625 L 9.578125 -7.625 L 14.125 -16.0625 C 14.300781 -16.363281 14.539062 -16.515625 14.84375 -16.515625 L 16.734375 -16.515625 C 16.898438 -16.515625 17.035156 -16.457031 17.140625 -16.34375 C 17.253906 -16.238281 17.3125 -16.097656 17.3125 -15.921875 L 17.3125 -0.5625 C 17.3125 -0.394531 17.253906 -0.257812 17.140625 -0.15625 C 17.035156 -0.0507812 16.898438 0 16.734375 0 L 14.703125 0 C 14.546875 0 14.410156 -0.0507812 14.296875 -0.15625 C 14.179688 -0.269531 14.125 -0.40625 14.125 -0.5625 L 14.125 -10.71875 L 10.859375 -4.484375 C 10.679688 -4.140625 10.421875 -3.96875 10.078125 -3.96875 L 9.078125 -3.96875 C 8.753906 -3.96875 8.488281 -4.140625 8.28125 -4.484375 L 5 -10.71875 L 5 -0.5625 C 5 -0.40625 4.945312 -0.269531 4.84375 -0.15625 C 4.738281 -0.0507812 4.601562 0 4.4375 0 Z M 2.40625 0 "/></g></g></g><g fill="#000000" fill-opacity="1"><g transform="translate(184.590792, 61.735681)"><g><path d="M 2.40625 0 C 2.25 0 2.113281 -0.0507812 2 -0.15625 C 1.894531 -0.269531 1.84375 -0.40625 1.84375 -0.5625 L 1.84375 -15.921875 C 1.84375 -16.097656 1.890625 -16.238281 1.984375 -16.34375 C 2.085938 -16.457031 2.226562 -16.515625 2.40625 -16.515625 L 8.734375 -16.515625 C 10.628906 -16.515625 12.117188 -16.066406 13.203125 -15.171875 C 14.296875 -14.273438 14.84375 -12.96875 14.84375 -11.25 C 14.84375 -9.550781 14.296875 -8.265625 13.203125 -7.390625 C 12.117188 -6.523438 10.628906 -6.09375 8.734375 -6.09375 L 5.265625 -6.09375 L 5.265625 -0.5625 C 5.265625 -0.394531 5.207031 -0.257812 5.09375 -0.15625 C 4.988281 -0.0507812 4.847656 0 4.671875 0 Z M 8.609375 -8.734375 C 9.523438 -8.734375 10.222656 -8.945312 10.703125 -9.375 C 11.179688 -9.8125 11.421875 -10.445312 11.421875 -11.28125 C 11.421875 -12.09375 11.1875 -12.726562 10.71875 -13.1875 C 10.257812 -13.644531 9.554688 -13.875 8.609375 -13.875 L 5.21875 -13.875 L 5.21875 -8.734375 Z M 8.609375 -8.734375 "/></g></g></g><g fill="#000000" fill-opacity="1"><g transform="translate(202.915871, 61.735681)"><g><path d="M 2.40625 0 C 2.25 0 2.113281 -0.0507812 2 -0.15625 C 1.894531 -0.269531 1.84375 -0.40625 1.84375 -0.5625 L 1.84375 -15.953125 C 1.84375 -16.117188 1.894531 -16.253906 2 -16.359375 C 2.113281 -16.460938 2.25 -16.515625 2.40625 -16.515625 L 4.625 -16.515625 C 4.800781 -16.515625 4.9375 -16.460938 5.03125 -16.359375 C 5.132812 -16.253906 5.1875 -16.117188 5.1875 -15.953125 L 5.1875 -2.828125 L 12.671875 -2.828125 C 12.835938 -2.828125 12.976562 -2.769531 13.09375 -2.65625 C 13.207031 -2.550781 13.265625 -2.421875 13.265625 -2.265625 L 13.265625 -0.5625 C 13.265625 -0.40625 13.207031 -0.269531 13.09375 -0.15625 C 12.976562 -0.0507812 12.835938 0 12.671875 0 Z M 2.40625 0 "/></g></g></g><g fill="#000000" fill-opacity="1"><g transform="translate(219.377935, 61.735681)"><g><path d="M 2.40625 0 C 2.25 0 2.113281 -0.0507812 2 -0.15625 C 1.894531 -0.269531 1.84375 -0.40625 1.84375 -0.5625 L 1.84375 -15.953125 C 1.84375 -16.117188 1.894531 -16.253906 2 -16.359375 C 2.113281 -16.460938 2.25 -16.515625 2.40625 -16.515625 L 4.671875 -16.515625 C 4.847656 -16.515625 4.984375 -16.460938 5.078125 -16.359375 C 5.179688 -16.253906 5.234375 -16.117188 5.234375 -15.953125 L 5.234375 -0.5625 C 5.234375 -0.40625 5.179688 -0.269531 5.078125 -0.15625 C 4.984375 -0.0507812 4.847656 0 4.671875 0 Z M 2.40625 0 "/></g></g></g><g fill="#000000" fill-opacity="1"><g transform="translate(229.213322, 61.735681)"><g><path d="M 2.40625 0 C 2.25 0 2.113281 -0.0507812 2 -0.15625 C 1.894531 -0.269531 1.84375 -0.40625 1.84375 -0.5625 L 1.84375 -15.921875 C 1.84375 -16.097656 1.890625 -16.238281 1.984375 -16.34375 C 2.085938 -16.457031 2.226562 -16.515625 2.40625 -16.515625 L 12.671875 -16.515625 C 12.835938 -16.515625 12.976562 -16.457031 13.09375 -16.34375 C 13.207031 -16.238281 13.265625 -16.097656 13.265625 -15.921875 L 13.265625 -14.234375 C 13.265625 -14.066406 13.207031 -13.925781 13.09375 -13.8125 C 12.976562 -13.707031 12.835938 -13.65625 12.671875 -13.65625 L 5.125 -13.65625 L 5.125 -9.21875 L 12.203125 -9.21875 C 12.367188 -9.21875 12.503906 -9.160156 12.609375 -9.046875 C 12.722656 -8.941406 12.78125 -8.8125 12.78125 -8.65625 L 12.78125 -6.953125 C 12.78125 -6.796875 12.722656 -6.660156 12.609375 -6.546875 C 12.503906 -6.441406 12.367188 -6.390625 12.203125 -6.390625 L 5.125 -6.390625 L 5.125 -0.5625 C 5.125 -0.40625 5.066406 -0.269531 4.953125 -0.15625 C 4.847656 -0.0507812 4.707031 0 4.53125 0 Z M 2.40625 0 "/></g></g></g><g fill="#000000" fill-opacity="1"><g transform="translate(246.170618, 61.735681)"><g><path d="M 2.40625 0 C 2.25 0 2.113281 -0.0507812 2 -0.15625 C 1.894531 -0.269531 1.84375 -0.40625 1.84375 -0.5625 L 1.84375 -15.953125 C 1.84375 -16.117188 1.894531 -16.253906 2 -16.359375 C 2.113281 -16.460938 2.25 -16.515625 2.40625 -16.515625 L 4.671875 -16.515625 C 4.847656 -16.515625 4.984375 -16.460938 5.078125 -16.359375 C 5.179688 -16.253906 5.234375 -16.117188 5.234375 -15.953125 L 5.234375 -0.5625 C 5.234375 -0.40625 5.179688 -0.269531 5.078125 -0.15625 C 4.984375 -0.0507812 4.847656 0 4.671875 0 Z M 2.40625 0 "/></g></g></g><g fill="#000000" fill-opacity="1"><g transform="translate(256.006005, 61.735681)"><g><path d="M 8.203125 0.234375 C 6.035156 0.234375 4.359375 -0.316406 3.171875 -1.421875 C 1.984375 -2.535156 1.351562 -4.113281 1.28125 -6.15625 C 1.257812 -6.582031 1.25 -7.273438 1.25 -8.234375 C 1.25 -9.210938 1.257812 -9.921875 1.28125 -10.359375 C 1.351562 -12.367188 1.988281 -13.9375 3.1875 -15.0625 C 4.382812 -16.1875 6.054688 -16.75 8.203125 -16.75 C 9.609375 -16.75 10.828125 -16.507812 11.859375 -16.03125 C 12.898438 -15.550781 13.707031 -14.894531 14.28125 -14.0625 C 14.851562 -13.226562 15.15625 -12.289062 15.1875 -11.25 L 15.1875 -11.203125 C 15.1875 -11.078125 15.132812 -10.972656 15.03125 -10.890625 C 14.9375 -10.804688 14.828125 -10.765625 14.703125 -10.765625 L 12.40625 -10.765625 C 12.21875 -10.765625 12.078125 -10.804688 11.984375 -10.890625 C 11.890625 -10.972656 11.8125 -11.125 11.75 -11.34375 C 11.507812 -12.320312 11.097656 -13.007812 10.515625 -13.40625 C 9.941406 -13.8125 9.171875 -14.015625 8.203125 -14.015625 C 5.960938 -14.015625 4.789062 -12.753906 4.6875 -10.234375 C 4.675781 -9.816406 4.671875 -9.164062 4.671875 -8.28125 C 4.671875 -7.394531 4.675781 -6.726562 4.6875 -6.28125 C 4.789062 -3.757812 5.960938 -2.5 8.203125 -2.5 C 9.148438 -2.5 9.914062 -2.695312 10.5 -3.09375 C 11.09375 -3.5 11.507812 -4.191406 11.75 -5.171875 C 11.8125 -5.390625 11.890625 -5.539062 11.984375 -5.625 C 12.078125 -5.707031 12.21875 -5.75 12.40625 -5.75 L 14.703125 -5.75 C 14.835938 -5.75 14.957031 -5.703125 15.0625 -5.609375 C 15.164062 -5.515625 15.207031 -5.398438 15.1875 -5.265625 C 15.15625 -4.222656 14.851562 -3.285156 14.28125 -2.453125 C 13.707031 -1.617188 12.898438 -0.960938 11.859375 -0.484375 C 10.828125 -0.00390625 9.609375 0.234375 8.203125 0.234375 Z M 8.203125 0.234375 "/></g></g></g><g fill="#000000" fill-opacity="1"><g transform="translate(274.920644, 61.735681)"><g><path d="M 0.828125 0 C 0.679688 0 0.5625 -0.046875 0.46875 -0.140625 C 0.375 -0.234375 0.328125 -0.351562 0.328125 -0.5 L 0.375 -0.703125 L 6.046875 -15.921875 C 6.203125 -16.316406 6.484375 -16.515625 6.890625 -16.515625 L 9.484375 -16.515625 C 9.890625 -16.515625 10.171875 -16.316406 10.328125 -15.921875 L 16 -0.703125 L 16.046875 -0.5 C 16.046875 -0.351562 15.992188 -0.234375 15.890625 -0.140625 C 15.785156 -0.046875 15.671875 0 15.546875 0 L 13.453125 0 C 13.117188 0 12.890625 -0.148438 12.765625 -0.453125 L 11.671875 -3.296875 L 4.6875 -3.296875 L 3.609375 -0.453125 C 3.484375 -0.148438 3.253906 0 2.921875 0 Z M 5.515625 -6.046875 L 10.859375 -6.046875 L 8.1875 -13.3125 Z M 5.515625 -6.046875 "/></g></g></g><g fill="#000000" fill-opacity="1"><g transform="translate(146.657642, 84.009303)"><g><path d="M 2.390625 0 C 2.234375 0 2.097656 -0.0507812 1.984375 -0.15625 C 1.878906 -0.269531 1.828125 -0.40625 1.828125 -0.5625 L 1.828125 -15.828125 C 1.828125 -15.992188 1.878906 -16.128906 1.984375 -16.234375 C 2.097656 -16.335938 2.234375 -16.390625 2.390625 -16.390625 L 4.640625 -16.390625 C 4.804688 -16.390625 4.941406 -16.335938 5.046875 -16.234375 C 5.148438 -16.128906 5.203125 -15.992188 5.203125 -15.828125 L 5.203125 -0.5625 C 5.203125 -0.40625 5.148438 -0.269531 5.046875 -0.15625 C 4.941406 -0.0507812 4.804688 0 4.640625 0 Z M 2.390625 0 "/></g></g></g><g fill="#000000" fill-opacity="1"><g transform="translate(156.415107, 84.009303)"><g><path d="M 5.984375 0 C 5.835938 0 5.707031 -0.0507812 5.59375 -0.15625 C 5.488281 -0.269531 5.4375 -0.40625 5.4375 -0.5625 L 5.4375 -13.453125 L 1.09375 -13.453125 C 0.9375 -13.453125 0.800781 -13.503906 0.6875 -13.609375 C 0.582031 -13.722656 0.53125 -13.867188 0.53125 -14.046875 L 0.53125 -15.796875 C 0.53125 -15.972656 0.582031 -16.113281 0.6875 -16.21875 C 0.789062 -16.332031 0.925781 -16.390625 1.09375 -16.390625 L 13.0625 -16.390625 C 13.226562 -16.390625 13.363281 -16.332031 13.46875 -16.21875 C 13.582031 -16.113281 13.640625 -15.972656 13.640625 -15.796875 L 13.640625 -14.046875 C 13.640625 -13.867188 13.582031 -13.722656 13.46875 -13.609375 C 13.363281 -13.503906 13.226562 -13.453125 13.0625 -13.453125 L 8.75 -13.453125 L 8.75 -0.5625 C 8.75 -0.40625 8.695312 -0.269531 8.59375 -0.15625 C 8.5 -0.0507812 8.363281 0 8.1875 0 Z M 5.984375 0 "/></g></g></g><g fill="#000000" fill-opacity="1"><g transform="translate(173.331605, 84.009303)"><g><path d="M 2.390625 0 C 2.234375 0 2.097656 -0.0507812 1.984375 -0.15625 C 1.878906 -0.269531 1.828125 -0.40625 1.828125 -0.5625 L 1.828125 -15.796875 C 1.828125 -15.972656 1.875 -16.113281 1.96875 -16.21875 C 2.070312 -16.332031 2.210938 -16.390625 2.390625 -16.390625 L 8.453125 -16.390625 C 10.367188 -16.390625 11.867188 -15.941406 12.953125 -15.046875 C 14.035156 -14.160156 14.578125 -12.898438 14.578125 -11.265625 C 14.578125 -10.117188 14.300781 -9.160156 13.75 -8.390625 C 13.207031 -7.617188 12.445312 -7.0625 11.46875 -6.71875 L 14.859375 -0.75 C 14.910156 -0.65625 14.9375 -0.566406 14.9375 -0.484375 C 14.9375 -0.347656 14.882812 -0.234375 14.78125 -0.140625 C 14.675781 -0.046875 14.5625 0 14.4375 0 L 12.28125 0 C 12.03125 0 11.835938 -0.0546875 11.703125 -0.171875 C 11.566406 -0.285156 11.441406 -0.4375 11.328125 -0.625 L 8.328125 -6.171875 L 5.125 -6.171875 L 5.125 -0.5625 C 5.125 -0.40625 5.066406 -0.269531 4.953125 -0.15625 C 4.847656 -0.0507812 4.710938 0 4.546875 0 Z M 8.375 -8.84375 C 9.3125 -8.84375 10.015625 -9.050781 10.484375 -9.46875 C 10.953125 -9.882812 11.1875 -10.488281 11.1875 -11.28125 C 11.1875 -12.070312 10.953125 -12.679688 10.484375 -13.109375 C 10.015625 -13.546875 9.3125 -13.765625 8.375 -13.765625 L 5.125 -13.765625 L 5.125 -8.84375 Z M 8.375 -8.84375 "/></g></g></g></svg>