<svg xmlns="http://www.w3.org/2000/svg" xmlns:xlink="http://www.w3.org/1999/xlink" width="400" zoomAndPan="magnify" viewBox="0 0 300 108.749999" height="145" preserveAspectRatio="xMidYMid meet" version="1.0"><defs><g/><clipPath id="id1"><path d="M 13 0 L 139.894531 0 L 139.894531 55 L 13 55 Z M 13 0 " clip-rule="nonzero"/></clipPath><clipPath id="id2"><path d="M 0.34375 54 L 127 54 L 127 108.171875 L 0.34375 108.171875 Z M 0.34375 54 " clip-rule="nonzero"/></clipPath></defs><g clip-path="url(#id1)"><path fill="#00a82d" d="M 13.300781 54.082031 L 34.257812 54.082031 L 50.753906 33.277344 L 29.800781 33.277344 Z M 118.941406 -0.00390625 L 75.089844 54.082031 L 96.046875 54.082031 L 139.898438 -0.00390625 Z M 76.953125 13.585938 L 44.195312 54.082031 L 65.148438 54.082031 L 97.910156 13.585938 L 76.953125 13.585938 " fill-opacity="1" fill-rule="nonzero"/></g><g clip-path="url(#id2)"><path fill="#14cc45" d="M 126.941406 54.082031 L 105.984375 54.082031 L 89.484375 74.886719 L 110.441406 74.886719 Z M 21.296875 108.167969 L 65.148438 54.082031 L 44.195312 54.082031 L 0.34375 108.167969 Z M 63.285156 94.578125 L 96.042969 54.082031 L 75.089844 54.082031 L 42.332031 94.578125 L 63.285156 94.578125 " fill-opacity="1" fill-rule="nonzero"/></g><g fill="#000000" fill-opacity="1"><g transform="translate(132.665335, 71.381927)"><g><path d="M 6 0.1875 C 4.875 0.1875 3.914062 0.0195312 3.125 -0.3125 C 2.332031 -0.644531 1.726562 -1.082031 1.3125 -1.625 C 0.90625 -2.175781 0.691406 -2.773438 0.671875 -3.421875 C 0.671875 -3.523438 0.707031 -3.613281 0.78125 -3.6875 C 0.851562 -3.769531 0.945312 -3.8125 1.0625 -3.8125 L 2.75 -3.8125 C 2.882812 -3.8125 2.992188 -3.78125 3.078125 -3.71875 C 3.171875 -3.65625 3.253906 -3.570312 3.328125 -3.46875 C 3.453125 -3.039062 3.734375 -2.679688 4.171875 -2.390625 C 4.617188 -2.109375 5.226562 -1.96875 6 -1.96875 C 6.863281 -1.96875 7.515625 -2.113281 7.953125 -2.40625 C 8.390625 -2.695312 8.609375 -3.097656 8.609375 -3.609375 C 8.609375 -3.941406 8.5 -4.21875 8.28125 -4.4375 C 8.0625 -4.664062 7.722656 -4.863281 7.265625 -5.03125 C 6.816406 -5.195312 6.144531 -5.398438 5.25 -5.640625 C 3.78125 -5.984375 2.703125 -6.441406 2.015625 -7.015625 C 1.335938 -7.585938 1 -8.40625 1 -9.46875 C 1 -10.1875 1.195312 -10.828125 1.59375 -11.390625 C 2 -11.960938 2.566406 -12.410156 3.296875 -12.734375 C 4.035156 -13.054688 4.894531 -13.21875 5.875 -13.21875 C 6.90625 -13.21875 7.796875 -13.035156 8.546875 -12.671875 C 9.296875 -12.316406 9.863281 -11.867188 10.25 -11.328125 C 10.644531 -10.785156 10.859375 -10.25 10.890625 -9.71875 C 10.890625 -9.613281 10.847656 -9.519531 10.765625 -9.4375 C 10.691406 -9.363281 10.601562 -9.328125 10.5 -9.328125 L 8.734375 -9.328125 C 8.453125 -9.328125 8.265625 -9.4375 8.171875 -9.65625 C 8.109375 -10.050781 7.863281 -10.378906 7.4375 -10.640625 C 7.019531 -10.910156 6.5 -11.046875 5.875 -11.046875 C 5.195312 -11.046875 4.660156 -10.914062 4.265625 -10.65625 C 3.878906 -10.394531 3.6875 -10.019531 3.6875 -9.53125 C 3.6875 -9.195312 3.785156 -8.914062 3.984375 -8.6875 C 4.179688 -8.46875 4.488281 -8.273438 4.90625 -8.109375 C 5.332031 -7.941406 5.945312 -7.75 6.75 -7.53125 C 7.851562 -7.289062 8.726562 -7.015625 9.375 -6.703125 C 10.03125 -6.390625 10.515625 -5.992188 10.828125 -5.515625 C 11.140625 -5.046875 11.296875 -4.445312 11.296875 -3.71875 C 11.296875 -2.914062 11.070312 -2.21875 10.625 -1.625 C 10.1875 -1.039062 9.566406 -0.59375 8.765625 -0.28125 C 7.972656 0.03125 7.050781 0.1875 6 0.1875 Z M 6 0.1875 "/></g></g></g><g fill="#000000" fill-opacity="1"><g transform="translate(146.797164, 71.381927)"><g><path d="M 1.890625 0 C 1.773438 0 1.671875 -0.0390625 1.578125 -0.125 C 1.492188 -0.21875 1.453125 -0.328125 1.453125 -0.453125 L 1.453125 -12.578125 C 1.453125 -12.710938 1.492188 -12.820312 1.578125 -12.90625 C 1.671875 -12.988281 1.773438 -13.03125 1.890625 -13.03125 L 3.6875 -13.03125 C 3.820312 -13.03125 3.925781 -12.988281 4 -12.90625 C 4.082031 -12.820312 4.125 -12.710938 4.125 -12.578125 L 4.125 -0.453125 C 4.125 -0.328125 4.082031 -0.21875 4 -0.125 C 3.925781 -0.0390625 3.820312 0 3.6875 0 Z M 1.890625 0 "/></g></g></g><g fill="#000000" fill-opacity="1"><g transform="translate(154.551835, 71.381927)"><g><path d="M 1.890625 0 C 1.773438 0 1.671875 -0.0390625 1.578125 -0.125 C 1.492188 -0.21875 1.453125 -0.328125 1.453125 -0.453125 L 1.453125 -12.5625 C 1.453125 -12.695312 1.488281 -12.804688 1.5625 -12.890625 C 1.644531 -12.984375 1.753906 -13.03125 1.890625 -13.03125 L 3.40625 -13.03125 C 3.644531 -13.03125 3.832031 -12.910156 3.96875 -12.671875 L 7.5625 -6.015625 L 11.140625 -12.671875 C 11.285156 -12.910156 11.472656 -13.03125 11.703125 -13.03125 L 13.1875 -13.03125 C 13.332031 -13.03125 13.445312 -12.984375 13.53125 -12.890625 C 13.613281 -12.804688 13.65625 -12.695312 13.65625 -12.5625 L 13.65625 -0.453125 C 13.65625 -0.304688 13.613281 -0.191406 13.53125 -0.109375 C 13.445312 -0.0351562 13.332031 0 13.1875 0 L 11.59375 0 C 11.46875 0 11.359375 -0.0390625 11.265625 -0.125 C 11.179688 -0.21875 11.140625 -0.328125 11.140625 -0.453125 L 11.140625 -8.453125 L 8.5625 -3.53125 C 8.425781 -3.257812 8.222656 -3.125 7.953125 -3.125 L 7.171875 -3.125 C 6.910156 -3.125 6.695312 -3.257812 6.53125 -3.53125 L 3.9375 -8.453125 L 3.9375 -0.453125 C 3.9375 -0.328125 3.894531 -0.21875 3.8125 -0.125 C 3.738281 -0.0390625 3.632812 0 3.5 0 Z M 1.890625 0 "/></g></g></g><g fill="#000000" fill-opacity="1"><g transform="translate(171.825748, 71.381927)"><g><path d="M 1.890625 0 C 1.773438 0 1.671875 -0.0390625 1.578125 -0.125 C 1.492188 -0.21875 1.453125 -0.328125 1.453125 -0.453125 L 1.453125 -12.5625 C 1.453125 -12.695312 1.488281 -12.804688 1.5625 -12.890625 C 1.644531 -12.984375 1.753906 -13.03125 1.890625 -13.03125 L 6.890625 -13.03125 C 8.390625 -13.03125 9.566406 -12.675781 10.421875 -11.96875 C 11.273438 -11.257812 11.703125 -10.226562 11.703125 -8.875 C 11.703125 -7.53125 11.273438 -6.515625 10.421875 -5.828125 C 9.566406 -5.140625 8.390625 -4.796875 6.890625 -4.796875 L 4.15625 -4.796875 L 4.15625 -0.453125 C 4.15625 -0.304688 4.109375 -0.191406 4.015625 -0.109375 C 3.929688 -0.0351562 3.820312 0 3.6875 0 Z M 6.796875 -6.890625 C 7.515625 -6.890625 8.0625 -7.054688 8.4375 -7.390625 C 8.8125 -7.734375 9 -8.234375 9 -8.890625 C 9 -9.535156 8.816406 -10.035156 8.453125 -10.390625 C 8.085938 -10.753906 7.535156 -10.9375 6.796875 -10.9375 L 4.109375 -10.9375 L 4.109375 -6.890625 Z M 6.796875 -6.890625 "/></g></g></g><g fill="#000000" fill-opacity="1"><g transform="translate(186.27365, 71.381927)"><g><path d="M 1.890625 0 C 1.773438 0 1.671875 -0.0390625 1.578125 -0.125 C 1.492188 -0.21875 1.453125 -0.328125 1.453125 -0.453125 L 1.453125 -12.578125 C 1.453125 -12.710938 1.492188 -12.820312 1.578125 -12.90625 C 1.671875 -12.988281 1.773438 -13.03125 1.890625 -13.03125 L 3.640625 -13.03125 C 3.785156 -13.03125 3.894531 -12.988281 3.96875 -12.90625 C 4.050781 -12.820312 4.09375 -12.710938 4.09375 -12.578125 L 4.09375 -2.234375 L 10 -2.234375 C 10.132812 -2.234375 10.242188 -2.1875 10.328125 -2.09375 C 10.410156 -2.007812 10.453125 -1.90625 10.453125 -1.78125 L 10.453125 -0.453125 C 10.453125 -0.328125 10.410156 -0.21875 10.328125 -0.125 C 10.242188 -0.0390625 10.132812 0 10 0 Z M 1.890625 0 "/></g></g></g><g fill="#000000" fill-opacity="1"><g transform="translate(199.252757, 71.381927)"><g><path d="M 1.890625 0 C 1.773438 0 1.671875 -0.0390625 1.578125 -0.125 C 1.492188 -0.21875 1.453125 -0.328125 1.453125 -0.453125 L 1.453125 -12.578125 C 1.453125 -12.710938 1.492188 -12.820312 1.578125 -12.90625 C 1.671875 -12.988281 1.773438 -13.03125 1.890625 -13.03125 L 3.6875 -13.03125 C 3.820312 -13.03125 3.925781 -12.988281 4 -12.90625 C 4.082031 -12.820312 4.125 -12.710938 4.125 -12.578125 L 4.125 -0.453125 C 4.125 -0.328125 4.082031 -0.21875 4 -0.125 C 3.925781 -0.0390625 3.820312 0 3.6875 0 Z M 1.890625 0 "/></g></g></g><g fill="#000000" fill-opacity="1"><g transform="translate(207.007429, 71.381927)"><g><path d="M 1.890625 0 C 1.773438 0 1.671875 -0.0390625 1.578125 -0.125 C 1.492188 -0.21875 1.453125 -0.328125 1.453125 -0.453125 L 1.453125 -12.5625 C 1.453125 -12.695312 1.488281 -12.804688 1.5625 -12.890625 C 1.644531 -12.984375 1.753906 -13.03125 1.890625 -13.03125 L 10 -13.03125 C 10.132812 -13.03125 10.242188 -12.984375 10.328125 -12.890625 C 10.410156 -12.804688 10.453125 -12.695312 10.453125 -12.5625 L 10.453125 -11.21875 C 10.453125 -11.09375 10.410156 -10.988281 10.328125 -10.90625 C 10.242188 -10.820312 10.132812 -10.78125 10 -10.78125 L 4.03125 -10.78125 L 4.03125 -7.28125 L 9.625 -7.28125 C 9.757812 -7.28125 9.867188 -7.234375 9.953125 -7.140625 C 10.046875 -7.054688 10.09375 -6.953125 10.09375 -6.828125 L 10.09375 -5.484375 C 10.09375 -5.359375 10.046875 -5.253906 9.953125 -5.171875 C 9.867188 -5.085938 9.757812 -5.046875 9.625 -5.046875 L 4.03125 -5.046875 L 4.03125 -0.453125 C 4.03125 -0.328125 3.988281 -0.21875 3.90625 -0.125 C 3.820312 -0.0390625 3.710938 0 3.578125 0 Z M 1.890625 0 "/></g></g></g><g fill="#000000" fill-opacity="1"><g transform="translate(220.376973, 71.381927)"><g><path d="M 1.890625 0 C 1.773438 0 1.671875 -0.0390625 1.578125 -0.125 C 1.492188 -0.21875 1.453125 -0.328125 1.453125 -0.453125 L 1.453125 -12.578125 C 1.453125 -12.710938 1.492188 -12.820312 1.578125 -12.90625 C 1.671875 -12.988281 1.773438 -13.03125 1.890625 -13.03125 L 3.6875 -13.03125 C 3.820312 -13.03125 3.925781 -12.988281 4 -12.90625 C 4.082031 -12.820312 4.125 -12.710938 4.125 -12.578125 L 4.125 -0.453125 C 4.125 -0.328125 4.082031 -0.21875 4 -0.125 C 3.925781 -0.0390625 3.820312 0 3.6875 0 Z M 1.890625 0 "/></g></g></g><g fill="#000000" fill-opacity="1"><g transform="translate(228.131645, 71.381927)"><g><path d="M 6.46875 0.1875 C 4.757812 0.1875 3.4375 -0.25 2.5 -1.125 C 1.5625 -2 1.0625 -3.242188 1 -4.859375 C 0.988281 -5.191406 0.984375 -5.738281 0.984375 -6.5 C 0.984375 -7.257812 0.988281 -7.816406 1 -8.171875 C 1.0625 -9.753906 1.5625 -10.988281 2.5 -11.875 C 3.445312 -12.769531 4.769531 -13.21875 6.46875 -13.21875 C 7.570312 -13.21875 8.535156 -13.023438 9.359375 -12.640625 C 10.179688 -12.265625 10.816406 -11.75 11.265625 -11.09375 C 11.722656 -10.4375 11.960938 -9.695312 11.984375 -8.875 L 11.984375 -8.84375 C 11.984375 -8.738281 11.941406 -8.648438 11.859375 -8.578125 C 11.785156 -8.515625 11.695312 -8.484375 11.59375 -8.484375 L 9.78125 -8.484375 C 9.632812 -8.484375 9.523438 -8.515625 9.453125 -8.578125 C 9.378906 -8.648438 9.316406 -8.773438 9.265625 -8.953125 C 9.078125 -9.722656 8.753906 -10.265625 8.296875 -10.578125 C 7.835938 -10.890625 7.226562 -11.046875 6.46875 -11.046875 C 4.695312 -11.046875 3.773438 -10.054688 3.703125 -8.078125 C 3.691406 -7.742188 3.6875 -7.226562 3.6875 -6.53125 C 3.6875 -5.832031 3.691406 -5.304688 3.703125 -4.953125 C 3.773438 -2.960938 4.695312 -1.96875 6.46875 -1.96875 C 7.21875 -1.96875 7.820312 -2.125 8.28125 -2.4375 C 8.75 -2.757812 9.078125 -3.304688 9.265625 -4.078125 C 9.316406 -4.253906 9.378906 -4.375 9.453125 -4.4375 C 9.523438 -4.507812 9.632812 -4.546875 9.78125 -4.546875 L 11.59375 -4.546875 C 11.707031 -4.546875 11.800781 -4.503906 11.875 -4.421875 C 11.957031 -4.347656 11.992188 -4.257812 11.984375 -4.15625 C 11.960938 -3.332031 11.722656 -2.59375 11.265625 -1.9375 C 10.816406 -1.28125 10.179688 -0.757812 9.359375 -0.375 C 8.535156 0 7.570312 0.1875 6.46875 0.1875 Z M 6.46875 0.1875 "/></g></g></g><g fill="#000000" fill-opacity="1"><g transform="translate(243.044348, 71.381927)"><g><path d="M 0.65625 0 C 0.539062 0 0.445312 -0.0351562 0.375 -0.109375 C 0.300781 -0.179688 0.265625 -0.273438 0.265625 -0.390625 L 0.296875 -0.5625 L 4.765625 -12.5625 C 4.890625 -12.875 5.113281 -13.03125 5.4375 -13.03125 L 7.484375 -13.03125 C 7.804688 -13.03125 8.03125 -12.875 8.15625 -12.5625 L 12.609375 -0.5625 L 12.65625 -0.390625 C 12.65625 -0.273438 12.613281 -0.179688 12.53125 -0.109375 C 12.445312 -0.0351562 12.359375 0 12.265625 0 L 10.609375 0 C 10.347656 0 10.164062 -0.117188 10.0625 -0.359375 L 9.21875 -2.609375 L 3.703125 -2.609375 L 2.84375 -0.359375 C 2.75 -0.117188 2.570312 0 2.3125 0 Z M 4.359375 -4.765625 L 8.5625 -4.765625 L 6.453125 -10.5 Z M 4.359375 -4.765625 "/></g></g></g><g fill="#000000" fill-opacity="1"><g transform="translate(155.685148, 86.785127)"><g><path d="M 1.375 0 C 1.28125 0 1.203125 -0.03125 1.140625 -0.09375 C 1.078125 -0.15625 1.046875 -0.234375 1.046875 -0.328125 L 1.046875 -9.078125 C 1.046875 -9.171875 1.078125 -9.242188 1.140625 -9.296875 C 1.203125 -9.359375 1.28125 -9.390625 1.375 -9.390625 L 2.65625 -9.390625 C 2.757812 -9.390625 2.835938 -9.359375 2.890625 -9.296875 C 2.953125 -9.242188 2.984375 -9.171875 2.984375 -9.078125 L 2.984375 -0.328125 C 2.984375 -0.234375 2.953125 -0.15625 2.890625 -0.09375 C 2.835938 -0.03125 2.757812 0 2.65625 0 Z M 1.375 0 "/></g></g></g><g fill="#000000" fill-opacity="1"><g transform="translate(161.282197, 86.785127)"><g><path d="M 3.4375 0 C 3.34375 0 3.265625 -0.03125 3.203125 -0.09375 C 3.140625 -0.15625 3.109375 -0.234375 3.109375 -0.328125 L 3.109375 -7.71875 L 0.625 -7.71875 C 0.539062 -7.71875 0.46875 -7.75 0.40625 -7.8125 C 0.34375 -7.875 0.3125 -7.953125 0.3125 -8.046875 L 0.3125 -9.0625 C 0.3125 -9.15625 0.335938 -9.234375 0.390625 -9.296875 C 0.453125 -9.359375 0.53125 -9.390625 0.625 -9.390625 L 7.484375 -9.390625 C 7.585938 -9.390625 7.671875 -9.359375 7.734375 -9.296875 C 7.796875 -9.234375 7.828125 -9.15625 7.828125 -9.0625 L 7.828125 -8.046875 C 7.828125 -7.953125 7.796875 -7.875 7.734375 -7.8125 C 7.671875 -7.75 7.585938 -7.71875 7.484375 -7.71875 L 5.015625 -7.71875 L 5.015625 -0.328125 C 5.015625 -0.234375 4.984375 -0.15625 4.921875 -0.09375 C 4.867188 -0.03125 4.796875 0 4.703125 0 Z M 3.4375 0 "/></g></g></g><g fill="#000000" fill-opacity="1"><g transform="translate(170.985282, 86.785127)"><g><path d="M 1.375 0 C 1.28125 0 1.203125 -0.03125 1.140625 -0.09375 C 1.078125 -0.15625 1.046875 -0.234375 1.046875 -0.328125 L 1.046875 -9.0625 C 1.046875 -9.15625 1.070312 -9.234375 1.125 -9.296875 C 1.1875 -9.359375 1.269531 -9.390625 1.375 -9.390625 L 4.84375 -9.390625 C 5.945312 -9.390625 6.804688 -9.132812 7.421875 -8.625 C 8.046875 -8.113281 8.359375 -7.390625 8.359375 -6.453125 C 8.359375 -5.796875 8.203125 -5.242188 7.890625 -4.796875 C 7.578125 -4.359375 7.140625 -4.046875 6.578125 -3.859375 L 8.515625 -0.421875 C 8.546875 -0.367188 8.5625 -0.320312 8.5625 -0.28125 C 8.5625 -0.195312 8.53125 -0.128906 8.46875 -0.078125 C 8.414062 -0.0234375 8.351562 0 8.28125 0 L 7.046875 0 C 6.898438 0 6.785156 -0.03125 6.703125 -0.09375 C 6.628906 -0.164062 6.5625 -0.253906 6.5 -0.359375 L 4.78125 -3.546875 L 2.9375 -3.546875 L 2.9375 -0.328125 C 2.9375 -0.234375 2.90625 -0.15625 2.84375 -0.09375 C 2.78125 -0.03125 2.703125 0 2.609375 0 Z M 4.8125 -5.078125 C 5.34375 -5.078125 5.742188 -5.191406 6.015625 -5.421875 C 6.285156 -5.660156 6.421875 -6.007812 6.421875 -6.46875 C 6.421875 -6.925781 6.285156 -7.273438 6.015625 -7.515625 C 5.742188 -7.765625 5.34375 -7.890625 4.8125 -7.890625 L 2.9375 -7.890625 L 2.9375 -5.078125 Z M 4.8125 -5.078125 "/></g></g></g></svg>