<svg xmlns="http://www.w3.org/2000/svg" xmlns:xlink="http://www.w3.org/1999/xlink" width="400" zoomAndPan="magnify" viewBox="0 0 300 108.749999" height="145" preserveAspectRatio="xMidYMid meet" version="1.0"><defs><g/><clipPath id="id1"><path d="M 13 0 L 139.523438 0 L 139.523438 55 L 13 55 Z M 13 0 " clip-rule="nonzero"/></clipPath><clipPath id="id2"><path d="M 0.34375 54 L 127 54 L 127 108.5 L 0.34375 108.5 Z M 0.34375 54 " clip-rule="nonzero"/></clipPath></defs><g clip-path="url(#id1)"><path fill="#00a82d" d="M 13.265625 54.246094 L 34.164062 54.246094 L 50.621094 33.378906 L 29.722656 33.378906 Z M 118.625 -0.00390625 L 74.890625 54.246094 L 95.789062 54.246094 L 139.527344 -0.00390625 Z M 76.75 13.628906 L 44.078125 54.246094 L 64.976562 54.246094 L 97.648438 13.628906 L 76.75 13.628906 " fill-opacity="1" fill-rule="nonzero"/></g><g clip-path="url(#id2)"><path fill="#14cc45" d="M 126.601562 54.246094 L 105.703125 54.246094 L 89.246094 75.113281 L 110.144531 75.113281 Z M 21.242188 108.492188 L 64.976562 54.246094 L 44.078125 54.246094 L 0.34375 108.492188 Z M 63.117188 94.863281 L 95.789062 54.246094 L 74.890625 54.246094 L 42.21875 94.863281 L 63.117188 94.863281 " fill-opacity="1" fill-rule="nonzero"/></g><g fill="#000000" fill-opacity="1"><g transform="translate(128.292135, 62.856804)"><g><path d="M 8.234375 0.25 C 6.703125 0.25 5.390625 0.0195312 4.296875 -0.4375 C 3.203125 -0.894531 2.375 -1.5 1.8125 -2.25 C 1.25 -3 0.953125 -3.816406 0.921875 -4.703125 C 0.921875 -4.835938 0.972656 -4.960938 1.078125 -5.078125 C 1.179688 -5.191406 1.304688 -5.25 1.453125 -5.25 L 3.78125 -5.25 C 3.96875 -5.25 4.117188 -5.203125 4.234375 -5.109375 C 4.359375 -5.023438 4.472656 -4.90625 4.578125 -4.75 C 4.742188 -4.175781 5.128906 -3.691406 5.734375 -3.296875 C 6.347656 -2.910156 7.179688 -2.71875 8.234375 -2.71875 C 9.429688 -2.71875 10.332031 -2.914062 10.9375 -3.3125 C 11.539062 -3.707031 11.84375 -4.257812 11.84375 -4.96875 C 11.84375 -5.425781 11.6875 -5.804688 11.375 -6.109375 C 11.070312 -6.421875 10.609375 -6.691406 9.984375 -6.921875 C 9.359375 -7.148438 8.4375 -7.425781 7.21875 -7.75 C 5.195312 -8.226562 3.71875 -8.859375 2.78125 -9.640625 C 1.84375 -10.421875 1.375 -11.546875 1.375 -13.015625 C 1.375 -14.003906 1.644531 -14.882812 2.1875 -15.65625 C 2.738281 -16.4375 3.519531 -17.046875 4.53125 -17.484375 C 5.550781 -17.929688 6.734375 -18.15625 8.078125 -18.15625 C 9.492188 -18.15625 10.71875 -17.90625 11.75 -17.40625 C 12.78125 -16.914062 13.5625 -16.300781 14.09375 -15.5625 C 14.632812 -14.820312 14.925781 -14.085938 14.96875 -13.359375 C 14.96875 -13.210938 14.914062 -13.082031 14.8125 -12.96875 C 14.707031 -12.863281 14.578125 -12.8125 14.421875 -12.8125 L 12 -12.8125 C 11.625 -12.8125 11.367188 -12.96875 11.234375 -13.28125 C 11.140625 -13.820312 10.800781 -14.273438 10.21875 -14.640625 C 9.644531 -15.003906 8.929688 -15.1875 8.078125 -15.1875 C 7.140625 -15.1875 6.398438 -15.007812 5.859375 -14.65625 C 5.328125 -14.300781 5.0625 -13.78125 5.0625 -13.09375 C 5.0625 -12.632812 5.195312 -12.25 5.46875 -11.9375 C 5.75 -11.632812 6.175781 -11.367188 6.75 -11.140625 C 7.332031 -10.910156 8.175781 -10.648438 9.28125 -10.359375 C 10.800781 -10.015625 12.007812 -9.628906 12.90625 -9.203125 C 13.800781 -8.773438 14.460938 -8.238281 14.890625 -7.59375 C 15.316406 -6.945312 15.53125 -6.117188 15.53125 -5.109375 C 15.53125 -4.003906 15.222656 -3.046875 14.609375 -2.234375 C 14.003906 -1.421875 13.148438 -0.800781 12.046875 -0.375 C 10.953125 0.0390625 9.679688 0.25 8.234375 0.25 Z M 8.234375 0.25 "/></g></g></g><g fill="#000000" fill-opacity="1"><g transform="translate(147.735371, 62.856804)"><g><path d="M 2.609375 0 C 2.441406 0 2.296875 -0.0546875 2.171875 -0.171875 C 2.054688 -0.296875 2 -0.441406 2 -0.609375 L 2 -17.296875 C 2 -17.484375 2.054688 -17.628906 2.171875 -17.734375 C 2.296875 -17.847656 2.441406 -17.90625 2.609375 -17.90625 L 5.0625 -17.90625 C 5.25 -17.90625 5.394531 -17.847656 5.5 -17.734375 C 5.613281 -17.628906 5.671875 -17.484375 5.671875 -17.296875 L 5.671875 -0.609375 C 5.671875 -0.441406 5.613281 -0.296875 5.5 -0.171875 C 5.394531 -0.0546875 5.25 0 5.0625 0 Z M 2.609375 0 "/></g></g></g><g fill="#000000" fill-opacity="1"><g transform="translate(158.404028, 62.856804)"><g><path d="M 2.609375 0 C 2.441406 0 2.296875 -0.0546875 2.171875 -0.171875 C 2.054688 -0.296875 2 -0.441406 2 -0.609375 L 2 -17.265625 C 2 -17.453125 2.050781 -17.601562 2.15625 -17.71875 C 2.269531 -17.84375 2.421875 -17.90625 2.609375 -17.90625 L 4.6875 -17.90625 C 5.007812 -17.90625 5.265625 -17.742188 5.453125 -17.421875 L 10.390625 -8.265625 L 15.328125 -17.421875 C 15.515625 -17.742188 15.769531 -17.90625 16.09375 -17.90625 L 18.140625 -17.90625 C 18.328125 -17.90625 18.476562 -17.84375 18.59375 -17.71875 C 18.71875 -17.601562 18.78125 -17.453125 18.78125 -17.265625 L 18.78125 -0.609375 C 18.78125 -0.421875 18.71875 -0.269531 18.59375 -0.15625 C 18.476562 -0.0507812 18.328125 0 18.140625 0 L 15.9375 0 C 15.757812 0 15.613281 -0.0546875 15.5 -0.171875 C 15.382812 -0.296875 15.328125 -0.441406 15.328125 -0.609375 L 15.328125 -11.609375 L 11.765625 -4.859375 C 11.578125 -4.484375 11.296875 -4.296875 10.921875 -4.296875 L 9.84375 -4.296875 C 9.488281 -4.296875 9.203125 -4.484375 8.984375 -4.859375 L 5.421875 -11.609375 L 5.421875 -0.609375 C 5.421875 -0.441406 5.363281 -0.296875 5.25 -0.171875 C 5.144531 -0.0546875 5 0 4.8125 0 Z M 2.609375 0 "/></g></g></g><g fill="#000000" fill-opacity="1"><g transform="translate(182.170597, 62.856804)"><g><path d="M 2.609375 0 C 2.441406 0 2.296875 -0.0546875 2.171875 -0.171875 C 2.054688 -0.296875 2 -0.441406 2 -0.609375 L 2 -17.265625 C 2 -17.453125 2.050781 -17.601562 2.15625 -17.71875 C 2.269531 -17.84375 2.421875 -17.90625 2.609375 -17.90625 L 9.46875 -17.90625 C 11.53125 -17.90625 13.148438 -17.414062 14.328125 -16.4375 C 15.503906 -15.46875 16.09375 -14.054688 16.09375 -12.203125 C 16.09375 -10.359375 15.503906 -8.960938 14.328125 -8.015625 C 13.148438 -7.066406 11.53125 -6.59375 9.46875 -6.59375 L 5.703125 -6.59375 L 5.703125 -0.609375 C 5.703125 -0.421875 5.640625 -0.269531 5.515625 -0.15625 C 5.398438 -0.0507812 5.25 0 5.0625 0 Z M 9.34375 -9.46875 C 10.320312 -9.46875 11.070312 -9.703125 11.59375 -10.171875 C 12.113281 -10.640625 12.375 -11.320312 12.375 -12.21875 C 12.375 -13.113281 12.125 -13.804688 11.625 -14.296875 C 11.125 -14.796875 10.363281 -15.046875 9.34375 -15.046875 L 5.65625 -15.046875 L 5.65625 -9.46875 Z M 9.34375 -9.46875 "/></g></g></g><g fill="#000000" fill-opacity="1"><g transform="translate(202.048713, 62.856804)"><g><path d="M 2.609375 0 C 2.441406 0 2.296875 -0.0546875 2.171875 -0.171875 C 2.054688 -0.296875 2 -0.441406 2 -0.609375 L 2 -17.296875 C 2 -17.484375 2.054688 -17.628906 2.171875 -17.734375 C 2.296875 -17.847656 2.441406 -17.90625 2.609375 -17.90625 L 5.015625 -17.90625 C 5.203125 -17.90625 5.347656 -17.847656 5.453125 -17.734375 C 5.566406 -17.628906 5.625 -17.484375 5.625 -17.296875 L 5.625 -3.0625 L 13.734375 -3.0625 C 13.921875 -3.0625 14.070312 -3.003906 14.1875 -2.890625 C 14.3125 -2.773438 14.375 -2.628906 14.375 -2.453125 L 14.375 -0.609375 C 14.375 -0.441406 14.3125 -0.296875 14.1875 -0.171875 C 14.070312 -0.0546875 13.921875 0 13.734375 0 Z M 2.609375 0 "/></g></g></g><g fill="#000000" fill-opacity="1"><g transform="translate(219.905872, 62.856804)"><g><path d="M 2.609375 0 C 2.441406 0 2.296875 -0.0546875 2.171875 -0.171875 C 2.054688 -0.296875 2 -0.441406 2 -0.609375 L 2 -17.296875 C 2 -17.484375 2.054688 -17.628906 2.171875 -17.734375 C 2.296875 -17.847656 2.441406 -17.90625 2.609375 -17.90625 L 5.0625 -17.90625 C 5.25 -17.90625 5.394531 -17.847656 5.5 -17.734375 C 5.613281 -17.628906 5.671875 -17.484375 5.671875 -17.296875 L 5.671875 -0.609375 C 5.671875 -0.441406 5.613281 -0.296875 5.5 -0.171875 C 5.394531 -0.0546875 5.25 0 5.0625 0 Z M 2.609375 0 "/></g></g></g><g fill="#000000" fill-opacity="1"><g transform="translate(230.574533, 62.856804)"><g><path d="M 2.609375 0 C 2.441406 0 2.296875 -0.0546875 2.171875 -0.171875 C 2.054688 -0.296875 2 -0.441406 2 -0.609375 L 2 -17.265625 C 2 -17.453125 2.050781 -17.601562 2.15625 -17.71875 C 2.269531 -17.84375 2.421875 -17.90625 2.609375 -17.90625 L 13.734375 -17.90625 C 13.921875 -17.90625 14.070312 -17.84375 14.1875 -17.71875 C 14.3125 -17.601562 14.375 -17.453125 14.375 -17.265625 L 14.375 -15.421875 C 14.375 -15.253906 14.3125 -15.109375 14.1875 -14.984375 C 14.070312 -14.867188 13.921875 -14.8125 13.734375 -14.8125 L 5.546875 -14.8125 L 5.546875 -10 L 13.21875 -10 C 13.40625 -10 13.554688 -9.9375 13.671875 -9.8125 C 13.796875 -9.695312 13.859375 -9.554688 13.859375 -9.390625 L 13.859375 -7.546875 C 13.859375 -7.378906 13.796875 -7.234375 13.671875 -7.109375 C 13.554688 -6.992188 13.40625 -6.9375 13.21875 -6.9375 L 5.546875 -6.9375 L 5.546875 -0.609375 C 5.546875 -0.441406 5.484375 -0.296875 5.359375 -0.171875 C 5.242188 -0.0546875 5.09375 0 4.90625 0 Z M 2.609375 0 "/></g></g></g><g fill="#000000" fill-opacity="1"><g transform="translate(248.968907, 62.856804)"><g><path d="M 2.609375 0 C 2.441406 0 2.296875 -0.0546875 2.171875 -0.171875 C 2.054688 -0.296875 2 -0.441406 2 -0.609375 L 2 -17.296875 C 2 -17.484375 2.054688 -17.628906 2.171875 -17.734375 C 2.296875 -17.847656 2.441406 -17.90625 2.609375 -17.90625 L 5.0625 -17.90625 C 5.25 -17.90625 5.394531 -17.847656 5.5 -17.734375 C 5.613281 -17.628906 5.671875 -17.484375 5.671875 -17.296875 L 5.671875 -0.609375 C 5.671875 -0.441406 5.613281 -0.296875 5.5 -0.171875 C 5.394531 -0.0546875 5.25 0 5.0625 0 Z M 2.609375 0 "/></g></g></g><g fill="#000000" fill-opacity="1"><g transform="translate(259.637568, 62.856804)"><g><path d="M 8.90625 0.25 C 6.550781 0.25 4.726562 -0.347656 3.4375 -1.546875 C 2.15625 -2.742188 1.46875 -4.453125 1.375 -6.671875 C 1.363281 -7.128906 1.359375 -7.878906 1.359375 -8.921875 C 1.359375 -9.984375 1.363281 -10.753906 1.375 -11.234375 C 1.46875 -13.410156 2.160156 -15.109375 3.453125 -16.328125 C 4.742188 -17.546875 6.5625 -18.15625 8.90625 -18.15625 C 10.414062 -18.15625 11.734375 -17.894531 12.859375 -17.375 C 13.984375 -16.851562 14.859375 -16.140625 15.484375 -15.234375 C 16.109375 -14.335938 16.4375 -13.328125 16.46875 -12.203125 L 16.46875 -12.15625 C 16.46875 -12.007812 16.410156 -11.890625 16.296875 -11.796875 C 16.191406 -11.703125 16.070312 -11.65625 15.9375 -11.65625 L 13.453125 -11.65625 C 13.242188 -11.65625 13.085938 -11.703125 12.984375 -11.796875 C 12.890625 -11.890625 12.804688 -12.054688 12.734375 -12.296875 C 12.484375 -13.359375 12.039062 -14.101562 11.40625 -14.53125 C 10.78125 -14.96875 9.945312 -15.1875 8.90625 -15.1875 C 6.46875 -15.1875 5.195312 -13.820312 5.09375 -11.09375 C 5.070312 -10.632812 5.0625 -9.929688 5.0625 -8.984375 C 5.0625 -8.023438 5.070312 -7.296875 5.09375 -6.796875 C 5.195312 -4.078125 6.46875 -2.71875 8.90625 -2.71875 C 9.925781 -2.71875 10.753906 -2.929688 11.390625 -3.359375 C 12.035156 -3.796875 12.484375 -4.546875 12.734375 -5.609375 C 12.804688 -5.835938 12.890625 -6 12.984375 -6.09375 C 13.085938 -6.1875 13.242188 -6.234375 13.453125 -6.234375 L 15.9375 -6.234375 C 16.09375 -6.234375 16.222656 -6.179688 16.328125 -6.078125 C 16.441406 -5.984375 16.488281 -5.859375 16.46875 -5.703125 C 16.4375 -4.578125 16.109375 -3.5625 15.484375 -2.65625 C 14.859375 -1.75 13.984375 -1.035156 12.859375 -0.515625 C 11.734375 -0.00390625 10.414062 0.25 8.90625 0.25 Z M 8.90625 0.25 "/></g></g></g><g fill="#000000" fill-opacity="1"><g transform="translate(280.155239, 62.856804)"><g><path d="M 0.890625 0 C 0.742188 0 0.617188 -0.0507812 0.515625 -0.15625 C 0.410156 -0.257812 0.359375 -0.382812 0.359375 -0.53125 L 0.40625 -0.765625 L 6.546875 -17.265625 C 6.710938 -17.691406 7.019531 -17.90625 7.46875 -17.90625 L 10.28125 -17.90625 C 10.726562 -17.90625 11.035156 -17.691406 11.203125 -17.265625 L 17.34375 -0.765625 L 17.390625 -0.53125 C 17.390625 -0.382812 17.332031 -0.257812 17.21875 -0.15625 C 17.113281 -0.0507812 16.992188 0 16.859375 0 L 14.578125 0 C 14.222656 0 13.976562 -0.160156 13.84375 -0.484375 L 12.65625 -3.578125 L 5.09375 -3.578125 L 3.90625 -0.484375 C 3.769531 -0.160156 3.523438 0 3.171875 0 Z M 5.984375 -6.546875 L 11.765625 -6.546875 L 8.875 -14.421875 Z M 5.984375 -6.546875 "/></g></g></g><g fill="#000000" fill-opacity="1"><g transform="translate(144.845212, 86.054602)"><g><path d="M 2.59375 0 C 2.425781 0 2.28125 -0.0546875 2.15625 -0.171875 C 2.039062 -0.296875 1.984375 -0.441406 1.984375 -0.609375 L 1.984375 -17.171875 C 1.984375 -17.347656 2.039062 -17.492188 2.15625 -17.609375 C 2.28125 -17.722656 2.425781 -17.78125 2.59375 -17.78125 L 5.03125 -17.78125 C 5.21875 -17.78125 5.363281 -17.722656 5.46875 -17.609375 C 5.582031 -17.492188 5.640625 -17.347656 5.640625 -17.171875 L 5.640625 -0.609375 C 5.640625 -0.441406 5.582031 -0.296875 5.46875 -0.171875 C 5.363281 -0.0546875 5.21875 0 5.03125 0 Z M 2.59375 0 "/></g></g></g><g fill="#000000" fill-opacity="1"><g transform="translate(155.435902, 86.054602)"><g><path d="M 6.5 0 C 6.332031 0 6.1875 -0.0546875 6.0625 -0.171875 C 5.945312 -0.296875 5.890625 -0.441406 5.890625 -0.609375 L 5.890625 -14.59375 L 1.1875 -14.59375 C 1.019531 -14.59375 0.875 -14.648438 0.75 -14.765625 C 0.632812 -14.890625 0.578125 -15.046875 0.578125 -15.234375 L 0.578125 -17.140625 C 0.578125 -17.328125 0.632812 -17.476562 0.75 -17.59375 C 0.863281 -17.71875 1.007812 -17.78125 1.1875 -17.78125 L 14.171875 -17.78125 C 14.359375 -17.78125 14.507812 -17.71875 14.625 -17.59375 C 14.738281 -17.476562 14.796875 -17.328125 14.796875 -17.140625 L 14.796875 -15.234375 C 14.796875 -15.046875 14.738281 -14.890625 14.625 -14.765625 C 14.507812 -14.648438 14.359375 -14.59375 14.171875 -14.59375 L 9.5 -14.59375 L 9.5 -0.609375 C 9.5 -0.441406 9.441406 -0.296875 9.328125 -0.171875 C 9.222656 -0.0546875 9.078125 0 8.890625 0 Z M 6.5 0 "/></g></g></g><g fill="#000000" fill-opacity="1"><g transform="translate(173.79737, 86.054602)"><g><path d="M 2.59375 0 C 2.425781 0 2.28125 -0.0546875 2.15625 -0.171875 C 2.039062 -0.296875 1.984375 -0.441406 1.984375 -0.609375 L 1.984375 -17.140625 C 1.984375 -17.328125 2.035156 -17.476562 2.140625 -17.59375 C 2.253906 -17.71875 2.40625 -17.78125 2.59375 -17.78125 L 9.171875 -17.78125 C 11.253906 -17.78125 12.878906 -17.296875 14.046875 -16.328125 C 15.222656 -15.359375 15.8125 -13.988281 15.8125 -12.21875 C 15.8125 -10.976562 15.515625 -9.9375 14.921875 -9.09375 C 14.335938 -8.257812 13.507812 -7.65625 12.4375 -7.28125 L 16.125 -0.8125 C 16.175781 -0.707031 16.203125 -0.613281 16.203125 -0.53125 C 16.203125 -0.382812 16.144531 -0.257812 16.03125 -0.15625 C 15.925781 -0.0507812 15.804688 0 15.671875 0 L 13.328125 0 C 13.054688 0 12.84375 -0.0625 12.6875 -0.1875 C 12.539062 -0.3125 12.410156 -0.476562 12.296875 -0.6875 L 9.046875 -6.703125 L 5.5625 -6.703125 L 5.5625 -0.609375 C 5.5625 -0.441406 5.5 -0.296875 5.375 -0.171875 C 5.257812 -0.0546875 5.109375 0 4.921875 0 Z M 9.09375 -9.59375 C 10.101562 -9.59375 10.863281 -9.816406 11.375 -10.265625 C 11.882812 -10.710938 12.140625 -11.367188 12.140625 -12.234375 C 12.140625 -13.097656 11.882812 -13.765625 11.375 -14.234375 C 10.863281 -14.703125 10.101562 -14.9375 9.09375 -14.9375 L 5.5625 -14.9375 L 5.5625 -9.59375 Z M 9.09375 -9.59375 "/></g></g></g></svg>